<?xml version="1.0" standalone="no"?>
<!DOCTYPE svg PUBLIC "-//W3C//DTD SVG 20010904//EN"
 "http://www.w3.org/TR/2001/REC-SVG-20010904/DTD/svg10.dtd">
<svg version="1.0" xmlns="http://www.w3.org/2000/svg"
 width="600.000000pt" height="400.000000pt" viewBox="0 0 600.000000 400.000000"
 preserveAspectRatio="xMidYMid meet">
<metadata>
Created by potrace 1.16, written by Peter Selinger 2001-2019
</metadata>
<g transform="translate(0.000000,400.000000) scale(0.100000,-0.100000)"
fill="#000000" stroke="none">
<path d="M4385 3386 c10 -48 -24 -120 -65 -141 -18 -9 -56 -19 -86 -22 -36 -4
-54 -10 -54 -19 0 -18 -29 -18 -36 0 -5 12 -42 15 -205 15 -123 0 -199 -3
-199 -9 0 -6 -7 -10 -15 -10 -28 0 -15 -21 22 -36 30 -13 77 -15 270 -12 214
3 233 4 233 21 0 23 31 22 37 -2 4 -16 12 -19 50 -15 104 10 159 102 119 198
-13 31 -49 66 -69 66 -4 0 -5 -15 -2 -34z"/>
<path d="M3560 2600 l0 -300 410 0 410 0 0 300 0 300 -410 0 -410 0 0 -300z"/>
<path d="M2500 2615 l0 -265 150 -1 c83 -1 159 -1 170 -1 11 0 34 0 50 1 l30
1 0 265 0 265 -200 0 -200 0 0 -265z m250 18 l0 -83 -48 0 -47 0 1 78 c1 42 3
79 3 82 1 3 21 5 46 5 l45 0 0 -82z m120 -158 l0 -55 -50 0 -50 0 0 45 c0 45
0 45 -35 45 -35 0 -35 0 -35 -45 l0 -45 -54 0 c-53 0 -55 1 -50 25 4 21 1 25
-20 23 -14 -1 -22 -6 -20 -10 3 -5 10 -6 15 -3 5 4 9 -3 9 -14 0 -14 -6 -21
-20 -21 -20 0 -21 1 -24 83 l-2 27 168 0 168 0 0 -55z"/>
<path d="M2940 2606 c0 -174 -4 -285 -11 -305 -18 -53 -49 -61 -219 -61 -160
0 -171 -4 -119 -42 23 -17 44 -19 192 -19 177 1 197 6 216 48 7 15 11 128 11
309 0 273 -1 287 -21 315 -11 16 -27 29 -35 29 -12 0 -14 -43 -14 -274z"/>
<path d="M4482 2835 c5 -25 8 -146 6 -269 -3 -246 -4 -250 -72 -300 -27 -20
-39 -21 -435 -21 -268 0 -407 -3 -405 -10 3 -5 22 -20 44 -32 36 -21 52 -23
189 -23 128 0 151 2 151 15 0 8 7 15 15 15 8 0 15 -7 15 -15 0 -13 33 -15 234
-15 226 0 234 1 267 23 65 43 69 63 69 332 -1 262 -4 279 -61 324 l-26 20 9
-44z"/>
<path d="M5140 2639 c0 -88 1 -90 18 -71 28 34 84 33 107 -2 13 -19 13 -29 4
-52 -7 -16 -11 -33 -10 -38 1 -5 -5 -6 -14 -2 -9 3 -28 6 -41 6 -13 0 -33 9
-44 20 l-20 20 0 -100 0 -100 110 0 110 0 0 36 c0 36 0 36 -17 15 -10 -12 -31
-22 -48 -23 -16 -1 -36 -6 -42 -11 -9 -7 -13 -5 -13 7 0 9 -6 25 -12 36 -11
17 -10 25 2 48 25 43 102 43 120 -1 6 -14 9 35 9 141 l1 162 -110 0 -110 0 0
-91z"/>
<path d="M5390 2497 c0 -269 6 -257 -118 -257 -87 0 -101 -10 -66 -44 21 -21
225 -23 243 -3 16 19 16 494 0 513 -6 8 -22 14 -35 14 l-24 0 0 -223z"/>
<path d="M4840 1828 c-7 -24 -31 -115 -55 -203 -24 -88 -51 -189 -60 -225 -9
-36 -23 -70 -31 -76 -13 -10 -13 -12 1 -18 8 -3 15 -15 15 -26 0 -18 5 -21 31
-18 31 3 33 6 54 83 54 191 125 467 125 485 0 20 -27 40 -54 40 -9 0 -19 -16
-26 -42z"/>
<path d="M3223 1600 l52 -200 690 0 691 0 47 193 c26 105 47 195 47 200 0 4
-355 7 -789 7 l-789 0 51 -200z m1113 120 l-6 -40 167 -3 c93 -1 -19 -4 -247
-5 l-415 -2 3 -64 4 -63 -41 0 c-23 0 -41 5 -41 11 0 6 -4 5 -9 -3 -7 -11 -15
-12 -33 -5 -30 13 -58 7 -51 -12 3 -7 10 -11 17 -7 6 3 -2 -6 -17 -21 -16 -15
-26 -33 -23 -41 2 -7 0 -16 -7 -18 -7 -3 -2 -4 10 -4 16 1 19 5 12 13 -28 34
20 56 123 59 48 1 59 -2 64 -17 3 -10 10 -18 15 -18 5 0 9 -10 10 -22 0 -17 2
-19 7 -8 8 17 42 26 42 10 0 -5 8 -10 18 -10 11 0 13 3 5 8 -6 4 24 7 68 7 57
0 79 -3 79 -13 0 -7 -6 -15 -12 -17 -27 -9 -276 -10 -271 -1 4 5 0 6 -7 1 -18
-11 -461 -8 -472 3 -5 5 -4 19 2 33 10 22 10 22 5 -6 l-6 -30 16 23 c14 18 14
26 4 38 -9 11 -9 18 -1 26 7 7 12 19 11 28 0 13 -1 13 -6 0 -4 -8 -11 -19 -17
-25 -15 -13 -39 -18 -32 -6 3 5 -1 25 -9 45 -8 19 -15 40 -15 46 0 6 43 10
115 10 129 0 122 -6 101 83 l-13 57 430 0 430 0 -7 -40z"/>
<path d="M4710 759 c0 -226 -3 -415 -6 -420 -3 -5 -329 -9 -733 -9 -597 0
-731 2 -740 13 -6 8 -8 17 -4 20 3 4 1 7 -6 7 -9 0 -11 -8 -8 -22 6 -23 -20
-78 -38 -78 -5 0 -61 29 -123 65 -62 36 -117 65 -121 65 -5 0 -217 -360 -229
-392 -2 -4 102 -8 230 -8 l234 0 53 91 c33 58 49 98 46 110 -3 10 1 29 10 42
8 13 13 31 9 40 -3 9 -2 22 2 29 6 9 10 6 14 -12 4 -19 15 -26 45 -32 22 -5
349 -7 728 -6 598 3 689 5 698 18 6 9 7 58 4 125 -4 61 -6 121 -6 135 3 60 5
207 4 225 -1 11 1 96 3 188 l5 168 -28 25 c-15 13 -31 24 -35 24 -4 0 -7 -185
-8 -411z"/>
<path d="M5157 663 c2 -49 8 -114 14 -145 10 -61 5 -116 -16 -158 -15 -30 -8
-80 10 -80 14 0 41 -67 31 -77 -7 -8 -226 -63 -248 -63 -26 0 -28 -12 -11 -78
l15 -62 190 0 c150 0 189 3 185 13 -2 7 -10 38 -17 70 -7 38 -16 57 -26 57 -8
0 -17 13 -21 30 -3 17 -13 35 -23 40 -25 13 -33 66 -15 93 18 28 20 97 8 252
-11 131 -30 195 -61 195 -17 0 -18 -7 -15 -87z"/>
</g>
</svg>
